<svg width="576" height="448" viewBox="0 0 576 448" fill="none" xmlns="http://www.w3.org/2000/svg">
<path d="M280.37 116.26L96 268.11V432C96 436.243 97.6857 440.313 100.686 443.314C103.687 446.314 107.757 448 112 448L224.06 447.71C228.29 447.689 232.339 445.994 235.322 442.996C238.305 439.997 239.98 435.94 239.98 431.71V336C239.98 331.757 241.666 327.687 244.666 324.686C247.667 321.686 251.737 320 255.98 320H319.98C324.223 320 328.293 321.686 331.294 324.686C334.294 327.687 335.98 331.757 335.98 336V431.64C335.973 433.745 336.382 435.831 337.184 437.778C337.985 439.725 339.162 441.495 340.649 442.986C342.135 444.477 343.901 445.66 345.845 446.467C347.79 447.275 349.875 447.69 351.98 447.69L464 448C468.243 448 472.313 446.314 475.314 443.314C478.314 440.313 480 436.243 480 432V268L295.67 116.26C293.503 114.513 290.803 113.561 288.02 113.561C285.237 113.561 282.537 114.513 280.37 116.26V116.26ZM571.6 219.47L488 150.56V12.05C488 8.86741 486.736 5.81516 484.485 3.56472C482.235 1.31429 479.183 0.0500031 476 0.0500031H420C416.817 0.0500031 413.765 1.31429 411.515 3.56472C409.264 5.81516 408 8.86741 408 12.05V84.66L318.47 11C309.878 3.92979 299.097 0.0641365 287.97 0.0641365C276.843 0.0641365 266.062 3.92979 257.47 11L4.34 219.47C3.12488 220.474 2.11955 221.708 1.38147 223.101C0.643395 224.494 0.187024 226.019 0.0384374 227.589C-0.110149 229.158 0.0519625 230.741 0.515508 232.248C0.979054 233.755 1.73495 235.155 2.74 236.37L28.24 267.37C29.2423 268.589 30.4752 269.598 31.868 270.34C33.2608 271.081 34.7862 271.541 36.3569 271.692C37.9276 271.844 39.5128 271.684 41.0216 271.222C42.5304 270.76 43.9333 270.005 45.15 269L280.37 75.26C282.537 73.5133 285.237 72.5607 288.02 72.5607C290.803 72.5607 293.503 73.5133 295.67 75.26L530.9 269C532.115 270.005 533.515 270.761 535.022 271.225C536.529 271.688 538.112 271.85 539.682 271.702C541.251 271.553 542.776 271.097 544.169 270.359C545.562 269.62 546.796 268.615 547.8 267.4L573.3 236.4C574.304 235.178 575.057 233.771 575.515 232.257C575.973 230.744 576.127 229.155 575.969 227.582C575.811 226.008 575.344 224.482 574.594 223.09C573.844 221.698 572.827 220.468 571.6 219.47V219.47Z" fill="#03A386"/>
</svg>
